<mxfile host="65bd71144e">
    <diagram id="HIP3nbAZw_EuaXWnEj3U" name="Page-1">
        <mxGraphModel dx="292" dy="692" grid="1" gridSize="10" guides="1" tooltips="1" connect="1" arrows="1" fold="1" page="1" pageScale="1" pageWidth="850" pageHeight="1100" math="0" shadow="0">
            <root>
                <mxCell id="0"/>
                <mxCell id="1" parent="0"/>
                <mxCell id="7" value="http://ics2o.mths.ca" style="swimlane;whiteSpace=wrap;html=1;" parent="1" vertex="1">
                    <mxGeometry x="40" y="40" width="760" height="480" as="geometry"/>
                </mxCell>
                <mxCell id="8" value="" style="shape=image;verticalLabelPosition=bottom;labelBackgroundColor=default;verticalAlign=top;aspect=fixed;imageAspect=0;image=data:image/png,iVBORw0KGgoAAAANSUhEUgAAAMIAAACQCAIAAADVxSOaAAAAAXNSR0IArs4c6QAAIABJREFUeJzsvXeYZcd1H3hOVd308nv9Oofp7pmentCTMBgMMpEDQRBgBCmaWRKXskxbK1tae6Vv7f203vXKtD/5s2xZ2dZHiqJIiREaZAwGcXLOPT2dc3r53lt1zv7xuicDmG5iQFmL3/e+mX733Vu3btWpUydfDPggfIAP8LNB/Lw78AH+IeADMvoA7wE+IKMP8B7gAzL6AO8B1PWcZIwpl3w/CIj4xnfpA/w9AgJIJV3HdlxbiLdlOu9CRoVCaXRkcmBg9PSp/tGRyYrv34CufoC/vxCI8Xi0ta1h5aq21rbG+vqM49hXn/a2ZKS16esb3vXKvhdf2H3w+PkAhK9Za3ODu/0B/n4BES0lLORMzL1la/f9999y622bamvTV3AmvKbdKAjCvXuOfftbT7+x//SsFhXLYzdaCIwf6PfxET7Azx8C0XOUK1hWSp4uN8btRx7Y9tRnH2lvb5byIiVdg4y01m++cfgP//D7e0+N5FRsjmRgPhCJ/v8ORIgoTJCfodIj99309a9/urWtARGrv15DaDpzeuDb3/q7fadGp2R8Sn9AQx8AAIAZiiFPgTMpY3/3wt7vfGdHoVC68OuVZJTLFV56cfeew+dmVTRnBPE/JBriyz9XH7lwHN7t76uH5ZrHr3nm/8QIDc+QlbfiP/jhzkMHTxFR9fiVZHTu3NCrrx2cCjFH8h8WDQEAA9LC58LsXjhy8ThfPHMBl17Cl11+KS67BN7l5P9poYmnwZkt6+9/7/lgUVa+jIy0Nr1nB4+eGS5J5zr2sqtX8M8F78xaLvngFWfS4hEGIOALP11oli77ioxw6TnXZFFXd4be7czljeQVl1998AaiHJLvxne+sm92Zr565DKFP58rnusdqrBgx4NS+I5NXZiG6jcJgDes228PJAACRgBxsT8MCMiAWP2OC2OLDFIgomAEQ5pZuJbd0dZimHr7zhNjxHbXru5qbWthpiPHDg8MjYZkLGFt33rz9NTUfG5+280353K5w8dPzMzlGAlYACACpxKR2ppMX/9weJF/s0BAREBBjMwATAC4OEhV8kJgsfgU1Z5XH+RdR3JxASxcjsgLLTDK94GQGMDEEoWZsaNHzjQ21V5JRqVSeXx8uqK5HC61L/zzIaMFAiGA6m6CAGBJ2dXeUVObPnPmVOeKjtaW1r37D5wfHl7Z0f7xjz22uquzXDY//P4PXn399W3bNv/q139ppH/gj3//D2ZD/elPfvzOu26zHAUA5fwTf/4Hf/LC7v3r16769V/7Wm56pvfE6W333EVav/Ts83/xl9+brgTV1R+NuL/9L/95R1vzn/7+H+145fVQ2QhQV5O+9947Nm5YJ1D29vbv3Lnr3OCgNmE2lVmzuvvEieMz+fzPNN1cZTwaADziJ+/Kjc6oXcfjRMz4fkxEzqcahnPnhqpfLyMjrU2l7Aeh9sN3sA8xgEEAwQgsSBhmvPE0RIAIDIjIVfbDqCSvXtmRSibPne299fattuX83dMvFMIwFot945/8cjLq7H/1ta7Nm1pbmqziVATDr37tK2vXdiMaRvmb//wbs79yJh2Lx2MxVwg3qNy+5aZ777/Hci1kZgA76375q1889NarPWu73XgkGos3t7YZZPDs9T1r1q5ofuPoWWMhoPEidk22JpqINiZcUSpCyk1GvccefuCTn35CKonMWzdvvOf2m//jN//jkTMDX/+lz99xx+27nn3um7/7e5VoEtAAgBSie2WnJcSZc33lUPPCqqwyUwEMAFXOtyiBICLzmqbS5+6ZAeF0NOgnto6dGs88+JvRWR8XT7uxM1IsB2nmQn5BWbsun9rl4KhtOup9BsqVRRjI6aIdEgPfwH5HPWflivZVKzuSyXipXDp96szps+fWru3+0hc/09pY98O/+NZ9T3wkna0dPHBgT98oCvQini0VVfzeI4fLMzODZ3pv3rCpraUxKBUO735rzdabYsnUtm03/fDp51oaagujQ1qILdu3ObZ1/uiJH/3Ft9s3rHvwo4+narMburs8BwWg0eHZw0fPnzt310c+HEslknEPKQC0UrHIJx5/LJVMIMDdTzze2LPx1OmzL73wigEqF4vIyABuxKttbPzYI49Mj/+PNatWSSlXta9Q5ZJXUxNqYzStX7Pmq198Ku7a/+0//8HeE73RaOyWbVs6VnYUS8Xjx0/09g0UShW+ZK9CZgbc3K5/4a65xpqyZDDIca/UXDeXG0lpqsoY7yuWREYMQIjcVh/+31+aWNNYzFfka2dqvvm3yfPjNy5SgADpE088/tRTn7CFTWSEEJNj49/99l/1D48U5+cHZ2fmx8fIkHCs7du37z32bdfKJhJRP5+fnZl2TVJ1RFINLc0dHdFY/PSh/f/jv/7RE1/5ygMP3p9Kxzeu7XrsyY+M9Q8KaSficQZ686UXd+3bO6DDm++9NxqPrejsFJUyIxTncz/9q++OzhW6b91eW5NKxGJIBgDaV7Rt37bF81wGrmloyNTU1sYiz3z7L3c8++zE+b4IhSDlXY8+snbjxvXbbqr/7ndYADMna2oefvwjbVtuOnrs2L69++rSyfq6OscSSUvaQE994mOPP/6QZVl+EKhPf+KlF17+9re+O5arboIIIBgAQZwYsGYKsiGDDFoyNCZL3/zF/P/1V9arJ+LmfZcxlsiNkC1F7dlgRabcks0bwqODti0TeFHYfu+hlLjjttuUxNmp8YHTvSvWdGcbam/avH5+aqyYzzV1thdDXfFDwdTRvcbyiw31dV7Em58YF8wbb97a3rW64c03w3IlNLpjTfe9T360UPIHzve/9uLOjp4e27YspVKxSMRzjTGlQikgUayE2mhGUK4NWiNz4PunTp6xW9tKpbLb1GBbDhhC5vHJqf0Hj2Zrax3X6Tt6bKBvoO/sqdCE3StaH37iI10rO5kYBCKCF4tGPLc6TLFs9n/53/5XQLl966aMo8pB4Dg2kgHmpobabdu2eBH3yFtvHT9y4sFPPHHv3XeWRif+5K//OrC9RZaEgJRNa88hQABGBhDIKxsLH9oYf/0Um/fd87k0LoIMCZc/tKFSnwqBBaDobjUdtaG4kRYmJWVtXdZoOrDrld/91/9m165XGSGZSW5c172yc0VtU7MDYnZ0nA10dHclHLmuezUw5+fmx0fHpOMSQqj9wwcP9Z/vR8f52Gc/c8v2m9947dWzQ2MYSwIgINu25ToOEhMRAVT/ZwAhBDIAY+AH5XIFHdtSCoUQiMiMAGMTkz96ekehUCSil37w49/7D//pb5/bmV299snHH1+3Zk0xnxvsPVPM55hJs/FcT0kJiPn5+WNv7Zmfnc5kUls3b6iNeggITMy0oq0tGo8S4Ml9B5/e8czJU322G+la32WVS4tqJyAwAt+yWkdc8gNBLBhweCby5883fGdnRNPPQddZsmxU8vH5g9GUl3psW35kRr56MjpTuLGxb4hoWYoZ8rl8hXhidhaYlZRSSgAEgcx07PiJtVs321F33ab1Pd3dZMzMxMT07BxIWVVrBgYGjxw8Vi4W2zs7G5saP/kLn9WlCuhwQeExWocBIgglAMGxbSkkAJIxSMwAhkygQymVY9nAi3oSAwN4kYgEgQDAprWry8lmI5a1elVXWCm/+dzzzzz97F0feeyhxx52HIVCIiIwnNx/4L/97n/43K/90/sfuL+mtra1pUUAGCZminielBIE3vrAfaqxrmtVuw796ZFR0npB7oYqMeGbpzzHzibd8L7N5Y7a0tO7U9/8fqZkEN4XTe0KLI2MGEQpEC8djoxOwdB05OSwev5AJB8ocyN3YmYmYikRGW3bzmQyDKhDbRbVSUQ8dvz4Y8Wyk00/+tRT6zb2VIrls8ePl4kNAgB6Ue/Ou25btarz9edeONp44smPP+FF7TvuuW3Pi69WWwjKfilfEELEk4lIxK3JZGzHZub83Fw0ngK4oEQjCMHMDMy4oFS4tiuEEMyO43z08UeaOjuO7N4bjTjFXH5oYOjcyPiauVwYaM+xceE6KBTyhcDMl3xGVErZtoUIZAwRE1XtXhxJxDavX1ecGj+zd/ezP3nGWM4FwaFqYtp5zH3tRK0S8NHewoObCt9/PVYxuGiLer8paUlktKDYG+Cz495/+TvH17Lo33D1kpi01o7lNa/o3HbrrVs2bkSC6dHxmelZFIqZEbFvYKivf3BLNrPp9jsAYGp05NDevVBTz8yIEE/E6xqbejaunx8ZOTZw3hjDgKAJjAYAYKyU/cJ8HhE3br85T9y5rieeSCBx77GTPXffA4KllLZl6TAslkpEZBZ9SYBQqZQNMwhctb6ne+tN0nEGXTeoVLxodNP27RhP3nzrLfFEHNmQMQDAwF09PR/52JMbNvYwQKlQmJueRgBgdL3YzOx8pVIBhrGBoVdeeoUQExHPTqdFfJoXTI5YtRoZQGNs38D3Xk28diI6Ni3ofVH1r4llKPwAIAKDfrH6989oNOIrpfMrrFDITJgvFuLx2Jqtm+o6Wptam6dGhg/u3hugrO5ZiOgHwQsv71zbsy7iOkEQnDp4qO/8YHtTW9XFUS6WZ2dmjQ633XvX6uLGSNRF4j0v7DSoqvM6OTWJZ8+svWXLyvU9da1tXjTqOnb/4WN9veebthskAUzEUCqX56bnytlMMV8AFAwIjJPTM+VKiUVs8913urH4+NDg0f3723t61m3esPnWbWu3bHY911KSQvJ9n5kRoLmj42Nf+IybiPt+pf/M2fO9527VoReLP/jkR3f8dMfwwGBtfU1jR8emSghCNLc0d54/f/T//feB9EgsbmoXVXoMCQcm1c83rH5590aGqjXsZ+efVW8GIRACIV/hFWIA1oZ2vfxabm5OWCoej53Yt/+v//TP3tq7v4giMNoEYX5uXhPv2XfwuWdfLBZKAydO/OR736s4UUMQ+iFVgpmJyeeef3nP3gNBGKSTydLs7DPf+c4zP92RQ0mGgmKpv//8K6+/+cqrrxcKpVgsBtoc37v3v//+78+g2HvgUN/pvuHevnw+Pzs/f+LkqTNHjw0NDJK0qktoPl964cVXCoWyk4wXi3O7nt5x4PDxHz/zwtnePmYuzswc3PXq9PBocW5+cnJidmZW6+Dc4UO2bely+eS+fS88vePU0OiZvvMsoatnbVzBT77/g317DtgR9+bbt928bbONfHrPnqBYBMCLmtrFT3US5eVH3m9cFrbWf37kd//dn31v57GZaO371QEDyAiUcHhlE5VDPjXkEl8g7gVRtjaVaG3ISu3rSiWXL07Nz+U1ZBsa7rplixeEO3e8MMJIjlWbSrc1NhTGhwYGhipePJFK3XbTxlrHenPnzsGCX9PaUp+IusjlXH50ZGQq0I1tHQ/effvk2TMvv7IziKcztbV16XhUCFOuzEzNDE1Pl5UrLbuzrdHMzw8Njuh4MpNKJC0cHx0vsGRpASMgZJKxtas7O2oyAydPnu49N0nsJtMtDXUZz6pMz+Qrle6ennB+Zu/u/d133NmaSZ7Yvbt+3TrhB/1nTw9OzXEs2dba1N6QRT84cfDARAi1zU216USN5wWl0uz0zPDY5Ixhsu3LbNk/b7TM9f/jX3ry13/jS38vyEgIWtVQ/hcfz61tKuw+Ff1PP8n2T7t8+apCMIiMbJiQAUEAIwoUEddGY8rlCiEyCkBAYCADiARSCHRsWzFUyhWNAAIFMwIwMQGDEELIqOtSEJb9CklZ9ZwKZiBmYELBAquBf2AIAUkgLvizgBGBBXDVC0xKCE/ZlXLFgCEpgUEgCAYwxELYrkWh1sZI27EBK5WStF1go3XIqAhBCFRCIpHWmhARUQBIIcgQETECyUVm875bqN8Ol5LR8mSj6wQjs2A0gqsaDgEDLnrhFzkwA9iK1zUXN7UXWup034z7xztUOVSX8mcGyQyAAuSigsRMTIVygAACFSICMDAzK65GmzMQYbkSIgAIwQDAwlStdWLBo2uI8yUfgLm6QzEyMAGAAFwIHAAEFkYxasbqQcG40D7AonbNQhvImxBQAiokZmRiIACQAhDKvgZEQGW0CQBQOoY0AKOwkEECEJvQkCBBQjICsyBATYwouSr/MfF1m3jxkoABYEYWJAAZGc0NYmY3kIwQWEiygDsZbxb+EMmDIErAC9aBC6uKMSRVIQhZHjjrvXwwXtFv86h8SQw5A4KQoB0QtyrTiuFzRk2wMMI3LAEvym1Xjf2ls4GLHoZLel3tEzBIspgTxB+2/Dzj86GqoDSoGcTlm8slEkn1yfByGYWv/JeBkYVE44LpRu629DGSp0kF4or+XlDxq3776yQjBiTJgAg1ZG6XTEK/auwcALEyN0Z2uoFkJIHXMX3S1hsw2G5hP+FhEjtC9byR+YujjAw8OGn9s99vyqZ9ZYneceTrGS+EJOsPK9pmmXuVqQfzkIFhw3/qOyfwauJYGhCYBawg+iXPNKB6XOgc0E+lOQnyu4GaXljvP4PfCtllvlOET9i8RnIPwIGwspfFs9rZTdK/ulVEgcyI1+ksQOA2pA8r2qZom9JRCU9XSgPG+eNQTL0HWtE18J6Q0bVCRRlrBP0jm79gkZCKldVhTIfRGy0zkMdDpPSFnAIWJR+OjNgwEgU0wFW9412AaG62zC9ber1kjrigrAeLJcM6icE3Sq4vgZbpnqw+C1kMv2yHX7TIZg3RWBLMZ0vlAeAZVt8LkZAXw9bedY9YHJyFkwmQELge4Dc9vRmZhWTb2eo4W3S5NeTxijhLcHkoLkcdu6ulruQHZ4fH6W1vdBE2mfts8w2X0xLZiyHjp6lE4I8QfIscZkPvNTHdKLFfImXBNHEgAai+ydz/KHStEYhuaFaIwMErwkou6Pnv8GyXhYpGAZrZRJCM49LDj/HXvmHa2yTLGuZGESBdqetdR5TqxXMQoZ6plhgAAy+uP/8F/OwXteO4BPUYxFFfYk++/vYvPoJEaEcTMxJQUF2jfvwTdMutSCJlTAZ9hRova4ctKevTmXQ89g59vtA4AqQBm5ksJlq1kv7RV/SnPkfJBBK2Cx0FQyivuvxnDcB9b8ioqiZJYIkkASSCh3CHTfc7hMCglGhpkLVZwdii+ClXZiVLNFJoKYxEo1ALNO/gC0I0ErVEs/ARutOihz1olQiWpTXoiAfxNCBudfHjCqXQF9sXWmIoMAQ0gOZag8UIJC7tD5gHHL7bA4dRRdzKbBGb26XrZQU9onidBClYIkjB1fMFaASz2P5VnQeSSIv90QqNx/xZ13TYhiJRuulm+557VWMLSHGLo+9VJo2okBYeAY0UJlcpvHDg8N7TZ+kKoxoaQIPVxhc/Spgemx7yMCZQpmtJKXJdY9uI8isR7sJQ8YXB1xK1xEs7fz3M7hr4GTe1qrrCCYfa0tCYkrYyiASANnAPgJwlmEcMAggNS0UIaEFzLd9rwfTiImBGApgpUv80TBTY8GWyJAIAcn2CO9OUjglcdG+tQGgoo5hFMtpOpVgqMzcvma0YdbfLRxaSWqqBhFgJYXwezk9TIRSLgtcFJxm5FremqTkFUbt6WAjmTQqdqRBzhqWwkzFtSCPYkjNZuj1KWUCCi0LvXAn6Z2l4DmkxcnFxZACRslFoz0BNHKRY0O5cEitAwoQWlsWWRZNTggiFFK7papEPCMhXfW/AzKgZx+ZN/4yYK1+ihC0+nYWmLS3b0hz1cEEzAN6EmCoCzJCen4WhIbtns4nESExZWbp9hWwizciICy6+QoWHZs1IDiv6UiX6/SMjqva7NcWPboBHus26JjviXHRBWwUJOxGOApLB4RGamAQA8qj7XvFvmwRdDC7BkGBojl7r1T84iAcGMaALqw4lmi2t4jPbePsKasmgXJx9ZFZnJL4CogRiYkxQyJIRUDTQRz6mHpIgmKu8lgELFTo1zn93lH98mMaK1SmqRuNTxtMProPHN1JPE6YiSixQHiiD4nkyR1gE2pqehv4+LPnoYftW+WubrUsFLwNiYl7vHYS/3gev9prQqMWIfVCC1tTTE1vwvlW8okbYarH3zNas4r+tiKl8+MpLODggymU0gWw0j9xrPZxBRmZAAGSGQMPpcXrxLP/wIPdOMS0ohowArqQH1vATW8y2ZszEL2qOQqM8YPh1wLkZq1KCt163pqcZyNoIv3GzXCAUBGAgFtMFfXCQf3QEdp6GuQrxQvtL26aWTUYLKTspj57ayl+/G1uTIFBf2G4ZkCworrDMhIbSuHl+BzqMaS1aIV4HVtwsSuULCnZbAjY0YlsGvvkcHxyCaswMAnfVmt/+sHhwDVuICMGltw+auNJqzHDBvPxT8gUkDdWiWiVSCQ0LjoPFVRWDrixsagHXgj/fzbnKggnRVfDAGvOvHoXu2upAhIttAxEU22U4FlJlzvzNX4IAkZGQhVgreHEDlzltRGuMNzZzT6P4F9/j3QOL7A65PUNfuxM+tZVrPEa4NLydtRT5dmHIqPI0HpgyUSHqWLWLeJatiFl0NVYNFrwijZvbqCbK//lFGM5V6QAE8n2r+bcfExubjALEhf2IAYAYyy3gNyNMjfKLO1AzpwmS4HbImtiVCT8tcV7fINY3gTHmudOyomEZ8dA/06YmEDY08uM90JZkCbiY6oVVgwda4PaIMCP1OOhzJGpQtSmrQcgkgmBkrMrZF65JWHhflzg0QGcmRD4QACwFfWKzuKfLWAKQERdt2wwMCFYW4XYRzoI5xTSn7bWWTLPVUrU0I9JlshYCtCbpC3eoF07r42MWAwNyNkpfuF1012oFatEWtWCDQMHOOiETMsxJc1ijK+xNUiTQrlfVjQkuz8CwWWxr1V++0z74V8Y3AgAtNHd04qM9mPFILFgyF8AAwuXIHVa4StMwmxGyWoXVKlUdykjV+3rJ4CACQm2EH1vP+87D3x6qGiIx45ov3ibX1xt7ofGFfYABEI3dBtIR4QSYsxqI5TqlEuA0S8CFfDu8pC8WwKZm/ugmOjgih+aQ399NDSTy+mbRUYsCrhW2iaxiqLos08Kmi4SLMoZCigWjy4Ut7cI/DGkPuushE4V8wADgIN29znJleIEJL16yQKZ2o7TqlW4wVAFVI4W9kEhxtcqHAAKwK0srUubUhG0MAUCN529d4ci3sS/ICMouyw6FbrKERJkVAkXVXM5XMn1EQCXE7Z3oWRXfeADoWWZlLTUkrGvp1igEWLWoaixqIyqAiKOKIohqRBzipYOzyFVb07KnhX5yhH0jAbg1DV217Ei+QutFYEQUHsg2qRpBrwAAtNJSqAvC4mURFItTCbeudOoTNDy3HIVt2WSEC5l+ERV1mfHKh2GAuQoNjHFdRhXLKJSUhhsVMFPfqIk7sj4FEq94fpBAMRs9q+o8QkuYbMwRgOISeyIDMMJ0HnqHdV0NB6FIJeHsWJA0ke5mw8hzBWtsMlzXLsVVFmsHOemhQNKICKSkiVpV38dFsmYEAjg3YYYnTM8q5/wgdLbh3mPBBtfOJrDiw0QOEx7VxPDyZcsAIuaQIwLACDDaEqMWqsvD1KuDZBjHZsNcCZJxDAJwoyI3z42SIxGeLeL0nGmvFa51QQlYEBNchUkHJRoABYCJqPRsgywu1UgYwTAOjPHwFDXUVAUPPD9iupCb0xIBz02Ca5mmGiH4Sm6djSnX8hfFkqUxpJ+FGyEgiLcJ2mTg8Tl4+vXCU48kAzKnzvoonNMjUgGdHgpaa8wDm2PSusaFoirWMAIiIlebv8ybhMAA00Xx0iHasApbaskP4digXSjki1vcY2do0xrzzK5Cd1saBV7Blt41kGIhX5ppYByefiNY2RarUJDL085jYS4UEaVAYK6o27NUs9aCy1wXDCDYGFzU0QSgYLx6Rgi47OOfPu2nk+pjd6mSj/tO07He4rqVlmt7nk0nzhU+c0/MTV7kkVj1BQPiJWONCIvPd1knQoNHzpk3TuiHb7Mb03y63991CA3Yu0+FdUk5McsKw4/e6V41lywBlx1/+17YjfjKb4TACKRxYj4cn4WxaS5VcGomFEyeS5WAJ+ekqZ527RZxgViuZfxHBmSYm/UnZ31tYGgciyW1/+i0EujaMhFnYhyZDA2JaxDNBabOb2swrOZTDoyGEzNhWZveQX+2LEZHKSgbzyMp9VxOzxYM0eVGHFxoFfmS/P+3qQMRopzP88BQaSYPwxMwnzf5ciiRYx4x6LFpCsy13bBX2mwvZ0ULRxGkwnIpGJusjE7rIDAA/sxcEPXQc6How9gM0NuxG16yjlbFe+NTu7JLCAi4oh5+/RfqIxFgEhtWSgAZtY1A2dEUkyhsS1/cpd6tvSsgANZ3Wv+00Y64zKQ8O/ytL9dLpTKJQnejCrX4za/UqXdyqODbEvDC3qqeuEved0ssGw8evCWZ9Pz/4xdrUjFylA4JN660bMWI9C4ed1ysHHBF0Ati3PX/9y97FR2N2qI5y9vXS58yrgU2UqjVuvZMJnY9ZkCuhiJcYZK0FN+2wdrUlfE8g8wSvK3rIelp1ybJoqNJkXEQ37lq3pKZ0o1yhhii2QrmCmXNVAnYMCCzLaUlGVCPTwYhXZMXvDuqG74lhSWADVNY1kZO5HxX5S3ybCnKJGZnyCxI8UsuRsDAjKYQiFKlUAyVH5YrRHNzviuNjcDEubyulJZbtIcZmX0jB4aNg1apbBw0vi9MBSLISmAphPm80WaZSciaYLYgmABAF4scaqwQK+S+EaIgJhSk3SDv+30TbJiuywV+fbghHn5mLlf4r56b65+EL33YLpfxzGAgpWrKoMSwdxSffaPw//xKTXvdMt2DmvnlQ5Ufvlp45NZ4bVoao/9sR/Hu9dFsynddHBgrvnSo8lufT61qkJJwSfeoJg9WtPp3fz7f2SIfvUsMjRoE/RfPhV99LDU6OuO41nN7CjevjX3u/qgSZjkOTobzY/K3/mTmE/foNR1xKcIf7ZqOeWprVwQYzo2aHW/N/c7XsmuariU5vhvW3/p2AAAgAElEQVTmC/DTt8q5sl8sq7mivnWdu6JBPr0rt/u0/zu/6r22I3/nLZHvPRtOzs7/+3/cFLHNe0VIN4QbIYCQIpOMJG2O2Oy5JhllJajo65CM63BDnXTcZT4BI4QMBoSjUEnjOpSMAuigqV6GICphWJP1EgpTUUeAuKpu1bs1Xo1lNKKp0ZmYIYQgEiVAmXINUxCy5bpWU52XigiEq7T+6+o8M4iZXLkuEfEsdm2tfc1aJmJOoDHQxnGxsznmOWqpPa9CWiYWY2CMRkQmIaIRsj1e1x3vbosGvvY16QA9J+xsi6EgoPds9t97boTVTUfR7etFT0cs5pFjQabLMYabasBSanAa2xtEzFl++46E+7c4W7scQCoH5Fj81Y9mGjOitRaB3YFpqv1w3BUhsGAQS2cX6NnhR28TthXJxFAiJ+oxGo1ubpd39Li5Eten3GQUcVnp5siCgTeudH/p49zeqCohr6iVq1pqiDETNwLU0DStbsZElC+N0bt+eBZu6lJbVlkEQKCirkDgm1ZzW53b3ai3fDJlQEsRCTUpQYDvWTzujZKNENBWrBQqSRYKYLIUGMYgFALQtlDJ5SqXAIAwVzCzBS0ESgFCgBQgmPyAKyFYQjuWUA4sw6q/eL4AIcoVgyCQAAQiQTmgSkBMpJSRihCXGVmRK3P/qO5stgZHgQNT9hEF5YqV8+NhMYBsilvqVe9IUAmuP9zxIgSiLQQRBAGZEJBAIFQqhhiZZbGMRitLCVcJhGtoecvGe8+NqmYTbeCtk3r3ieAzD8QqgRmZCKS062uUQj08IZ/ZXfydX0x5KWBYchEJBtDEe0+GOw9WHr0jqpBicevPf1q872arrsYyRMUi73hz/l99qS4SN0u3pDECh0b9YGdpdNL/+lNW34DJpuG/fD//tSdSpYq2pdh1JFjZ4nziTqHEcvadqRJ++5nCpx+O/tGPCw/c4q6oBzL0/O5iMilWtzmJiJicxx/uKv6fX3Yj9pIlLz/EQ+fo/EjZ97kc4PZ1dl2NeP2Iv+8E/LPPpg6fyW1bF9ux28zOlv7l55PvqMwuDTcqiFYgJqNWJh5GPek6UCjJUItyWUdsjkSgPiPEEoKLrwYKAUShMUFtWjkeN2ZlKmGFmokwEbUyCSl4OdZYXug812WUEuTZVJ9RSumGNAgFfoieK7JpO+bh0kT3S+B5YEm2lMokMJuw0lGcLQTJuKpLOzrkUJtYxK5L2UpWk0+WdhslIR5Bz+ZkRE7n2XY5FhFNNdb5ZIWZyxUyBOmEAJaLJo/3JgbyRpGRlNDdKurSTjpmKj51t0oTcnOtshUOTev6pBuP0PKeAQEkwqZVsj4bq0vLMCDPNvffhI012FonGMTYLD1+u5eKLbH9asoJIwMLoe/eKC0VSXoYukEioZ68x13XBl6XXShzIiKSERRIvPSqCwzgSP3wdqsmHj56m2rKgGNRR5PVXGchQiamlKCxGYjf7SQidCEF5frvIgW3ZU1dwpECNEE8IoWkjSvtpgy215k1j8SB0GgSwpbyvayBdENkI2YWyLbk2TkT+JAvUanCxGgphSjScTk2HYYhMvByrC8MAJAvwcw85/JQqECuyGMz1XweCQheBGZyZtERt8S2kX0j95zSEQ9P9AWn+8iyxMQ0JiPy9SOVIBRxT65qsifnuHfEmMU4sesHAudKhFI5KAKthM35imEUk7N6Zl6jQASRiML0fKgvxNFc31wzMCOXAj4/aoplCEmMTlPZp9kcVwIYnaV8GVEIKbAlKwdHTaUil2FVezvcKG5UqvCPXq8MjVPHCtvz8GRfSWDk+PmSACr48MJblXUrI7EII4ulV9hiQ+LkAL+4r/KRO732Vic/b14/bGoy+Ny++fYGd3pev3FMb1tvu16ZGZa4+7BhfONwydkaO3Ieom7lYy1xD3hkSuw8kned8PxQuS5jvXqwsm1DZEWTEkj4Tibxq1oH9itq12Hf1/CDXeETd2NXizUwYX76qr+y1T1wKpdO4HyBX9hf3LAyHnOWInshE0I54GN9KC1TWyP2HPMf2Oa0N0VGp8OXD4TSFpNTJukBodp5UHe3QdTDa2ZgLQM3hIwQERHSCWtu3p/LhcWy9kOs+MGqFjviwOiMySRQVrNllmG9w2raFrsW65AnJ02hpAulUGvR0xlNJQQZkYnr0DfgLkP8QiYqV8JSGccmyx2NcmommM9DrqAFm2QU1nZ6EimTEI7F1dCeJd2BEf2AJ6fKjCngoFgU4xOMUmRiwlPQXB9JxHhoyiTjPkLVNLWE1hmgEvDkvN9UawNhNYZkYjowASFryc769phtB2MznE1Ic6mj5mempBvFjVwHH9mmKhuV5wlNak2bzcTxCEgBHU3Y0x6rTQixECK21LZZCbhjg9rUlYy7BAKIrFVNqXQCPEci6hUZ3LIykYprroZoLbXnFn3x8ZqEYzXXxz0loy6YrCBQm7tFbYKlkES4oiHqWKDkcsS7zib8J59KpZLYWZdIRBgRlYKOek9KiLosULTV49oViXQyIHz79+BdPSggBEBDWn718ahjoSXkbWvikagEEoiwqslNRU3EJiPslY1mc6eVilG1AMF7ghtlNwo1HzlvDvaZuSKOTsuZHOXKoCQgmt5hfv0o++Eyb00kBydxbIaLFT4xKHJFHJ0F2+NnD4SjM0KCUEoMzoXP7avky7RUyxEyEMnxGS6G4aEzQf80zJSpf5pmynT4HBqQAnm2APvP8Oj0corvMtH5cd59MgwN946agWk151vDM6ZEPDIn/ZCECKeK+rWjZngCllEKMTBmcAr6x2hgSh/pM2PT4eiMPz4fvHGiMltCliCITwzyWyd0+O61AJZw9xtjxWYuVmjH677riFUtlpLBwdM+oHvwrCURjvb6w+P6tvVezFtO5VFDdLi3NDhlPNd+/vW5Lz6WaG2yp+bsNw4GpbmiFmRbanTcnyzAxg476SxBbKl2JiT80Uuz99xW+zcv+RtW4xcedBTC+SF4cU9BqejAmHEU7DthHr7V6WhSzlJ5KYpzo/C9FwurWhq+tSO3srX8Cw8lyFg/fLkwOOJv35SaK7Al/J0HdCaeWNWw5JVW9tXu40Hgh+mEPNlf+uS9iWxCnuorPb2rnE1lnt4bZqJ88mxQ8NW21U4iw5fGMV89IgLIU2hIVN5NSLtBmxpKCbUpMV82E9MUhAiIpYpurTdxG6dr1MikroR6mbwQEVkYrYkoE7eEVKNT0nb1uZHJR+/IukITQCXAcgDlMgEuLT2UEYiZDVEQtNbB/Gxpcl4OT/LsnFFgWcCd9UhgJ2PlsFptdKkWPOLe0UIypoSlLQVx1y4WnMGpgq3YiVoJz9TETdHH+qzK5fVSOw8AlTCYn/fr65zaWuobgYn5wBiJihpqrdn5cGWdjrhifBrCGZ0PAoZ39CSwiEbsR+/YOjgx8+aRU/yOyeY3xooNkHDFlx6LVAKKRlhrG9EBxrhtBOD6lfzRWxM1iWBZRmCwkO/ZHLmDI0LAE7cnIo7xDTpK/t6vNafilLQsQt7a7eRLUJcCBrpe8WhBVsaIRd/4XFPEpp5Oy3PBVthaR7bl3rcNM0kWYEKDW7qSniJPGlxi2VchxFcfyk7d5TfG8Xe+lrEVCOG31dv3braNQVuxEiYktWWlqEloZrFUz11zWv7Kxz1EsKV11zrHs1EbspS9aSXXxdlSlgDatCpSKEBdyryrZFQoB3/7whvXUzvgxnAjBGKYyeFMDlY0qLJPbAAFihgjUK4C/cPFeNSScjmbGgPmyrocCESYzummGqkBPcv0Dut1bZawQhBypmTGpyATlZa1FIaHwMCGxMSMaajB3jFOeaK+lotlFiUYmAh7HABiQ2JoopKNi6izBBF4EXqqKPtHILuW5vJUCaE+I0nzXMGUKliXFlICGTo/rh1lucklB6KEWkzOCoHGcWC+yHUZAGZt4Ey/8VYrSwUK5Gw5GJ7kTFKpd24bgQHCizGo73T2jYo3KpTp288VQ4MfvydSKJlzQz4I1Zi1bAz3n/HP9ENrk2quqdZPXBoMw56T5YHxMJOKv3W09NgdbjRqE4V/+DfFz9wfQcURW54cqAxNmda6ZFN64XVG19HphZ5UQviLH499+J7aP/1JLhPjL38kM5PjscnSq0cqn3ooOpczYQivHAof3h6pr5FiiaogEb60v/jTXaV//bX0n/wgV5ekJ+9PzOX1oZPB0ATdfVMcINQkvvti8cuPxu/daC11nc2X4Sdv+NpUGrJy77HyQ7dGGmqwf4x/9Erxq1a2UDCpGB045Q/PiPYGqynxnhmyb5xPDVJxJlJCQCzKdRnlh9K2OWLLVFTWZ8HQ9VtoLwMipBOiFErXMata7WxKKJsUipYG7miJzuXLli2THnKtDENeyHq87sJAgGALbm1QtmU6G1Q0GrqWScY5NKq5Trg2xmNOpaKzCe1awLzkRYAo6jO4sgkijtVSZ9XEybOhKGUybqHgqIcGLb9E3e1eqWQI1FK5nZKmLmuMltmkWtli1aRkLArtjWLbhpihSizmRCIUj1CLJStlgsTf43ijqhAc8cTH744UyjKbNuVAZuOKDNSlUElor7cm5kxDermNA6xpi7Q1kBSwphWSCWBmV8HnH001pIINHRYzdzVHZvPUUIMM1x3+uHiWUvDw7ZlknD/zUDTmCUdRTMumDLY1xNvqUQko+c7qFjsRJUsuFgm47s4L5M0rVXNNujEVfO3JSLFCti1irljbavuaYg5YFvqh1VRnWusk4BK0kGr6XMzD+26yFaIUsGmVHYuw1qY5AzFXtdSLuMMI3F4fnc6bllpcXrr+NXHDymQx5Ivm7LC2lO0H5IehEiIRtVCb0WnZPxy017lXpcdcb9PzRcoXuSFrjU1XlBKlsqlNq4GRMKiQ50ZYw0zO9A1Rc+Zi2vx1tbvIusZn9cl+3dVinx6km1ZbA+MmlQzPDglHciJu+T4MjumGDGRiF4r2Xf8tuFzSJ85zJm6dHjBRT7Q2oB+YeTKTs9zeKKKuKPt8+nyQjTlJZwnCYzVpjjSMTWhi4TowNcurWi0dCgY42e9HPRcSiAYnZk3vkN9R5y1v9K+JG1htbTZvHTiZW93uVAycHTEoVO+Yb4Muhdb5oeCezQ5aywkhZIDhSTM4ZQ1O8Q9fmv/UQ/GahAqM2vFW/vZN3uR8vlDEliZ394nSnZuS1Td7XCeqL+UgFkfP0dAU19W5L+yf2bwqWdE0NiN2HtL5YmBCv6kucmY4VCi7mxUudVtgOZWnn75VWdUa+fGr83U14lMPxvIVPHgiPNVXuXWDXSjTlu74q4eLW7tt5Kty9N4NgcYT53Eqz011cvfh3GN3xOozcjrnv3yo4mu0lLEBamudfSfLD90SWXYZmqtxo8gIERuzYuta11WmQBzzRCUw2TjGXZmviNas6y5ZfFxsGTDiomPpdNza3O2lE8qwYIBkHOIeNmWtIGlqM3jzGjvqAPJ1G/yrGSeACBCJcCYOUvoRB7RArU08ijVx3VQnFYtYlJWyWrMglvPiJrIVNGSMENTSgDUpRmQk6Gi0BXJjjSKiuoy8tcfLJglhyctMCI7FiSWkE6KpTrouEFAyhk1ZlY5BNm5JZdIJeXuP68hr5WIuFzeOjKA2Fd6yDpRiR2FjjWU01MSkpSBfNkpYUlbje5b8HIjY1SyashSPweq2qKuwXKFIBD7/YDQVh2zKAoQwoGSPjUgXqm9eN1gAf2gD+tpJx+GTd9sRy3Q2qqhHH79LNtTYnoWBxnLInsVUTepd2iNge4P4yiNeQ1Z/+h7bsjHqUsbD1c24caUbdYQjBQm85ybpWrikTafKdT0Hbl8nmcmyeU2LnYigYbal+NTddjYlEh4w2r7P6R6BwMsIi3s73Cifmg7hwCl+5YAZnsbecRicgMl5EMoixrMj8OM3Tb5y5WsdrhPEPDJDg5M0NMUn+tVkDs5Pwvis3nXAn5yTCEqTOtaPz+0L5ouCQSzR8UWTOXrlYJgrYUDizWNkNO4+FZS09cZx7h9DQukbceA0v3UcCuUlxANVwQzDM/T6Ycr5Yuf+8NQgjM6IiRndN8In+tkPJSMOToTPvEkjU0uTW3hBtsOJeXNqgEYmYN9pGp7mvhEamoZdR/TILBq2ia3eYXrmLZopYjW5+T0RjpbHjfhity/kFF7CWpjZD+GNo6WRad6wLtoS5/3HSoyRg6d8ieHkrD54xr+jJ5PwluXdBBqb9ocmhKFw38nc5z4caW60A9+cHVUNDfTy/lzEtXyqnOjTt3S7yejSFgoDhmTOT4h4XO88EL56tPzY3fF13YlQ66FZN3co2HUUkGlylpXgVU3ReGSJUiqjJvvlA8VtG9zzMyokvb7DmZq3dryRDwIYmrDmi4Et/Rf3Bx2NTnttuNTXb45Oh995rpRK2l0rrFf2lROuWLPKGZ+GY+fKSvmvHAhCTXEb3joVbO6yamJLUUDeEcsjI1os3Q2wUIsH4YryHQiRuJ014dhkZb4gQmOVy/72jfG4Yz2/r1hXK5UAWOarv5Qmt+AHyZhMxy0/EMdPUyzO4znfU/Jj96YCbXYd1nU10rKqO85SphkhXzBT8z6w7Ol0B0Z8DfaLr088fHvt7Ox0zxZv0yp7rkAv788rZKnMUuNoWZrxSUgmrIBxaKTQ2ZgcmNDT85X2Rjlf4I1dMhmNHz/PNWlSihisJXWeAbyIWN1iE6AykIoppfD4aT8SFZZiz5b3bY4YhjeOFNNp15EWEiLSexK4tkzZSABYSnmurSwG0sCXjSciRlz+6sM2oSMFLyoEykIfEH/hfpfujVqWXl6CsQK6bxPevclBBPiQIwENKITKTb+etmSgUCOZlvtdBukgIJilJnx1tVr/9ms1Eo0U9KFNdQpLX3wsrjD/b77qKsEKwuY0dTVFBAsllzz+ksUDW/lDNzlKmN/7tTQiC9QoLAQBxBJCwKAhbd210XaQl8qrEbA2pj7/YWSSAPzorRFEBhaAuLU7bUmyOESgxnvUE6RcAYxmGfFY18Ry3nwtBCYzyeabNmbamijVPyWPeTCn6LLpCjXu7tWzc+GGVW6uGDKyLVR7nYXAp0fC4+eKj22PJr2lqQqEAAiGuG+c8xVAhvFpvaJJhgYjEdi1d+7+bcnamDbAx4doaLzyyNZozL5uGsKFykYVI1/cU6rNCGarb2Du0Q+ljp7Kr1zhvXIgd/uGSDau8xVr/6mgNoWbOmy5xPFjoFPDvOd45Ym7YvtOmUSUM0kXgAyZYgk764Tj6qmceeFA6YGt6dY0ES5UULlOhMS9IzCdC5Wlh8eCNR2eYVTCvHVk/s6N0aYaC4FOj1kn+ksfuSUa96Da/s8n+tGyZO3a1S333KUikSFoPA2Fesgr1Jf2plAyP32loFk01Xu2lEd7Swzq+LlQCv9UX3jqPG3oiqxvAbn01UAszvSX+sdJOc5bx8pPPRBpqOGpGXz5oEhG/YnZsDbpHB/0cyWrp427W667tD1AVcArlcSe06Yx5XevcnvH2BZSKWtiWr15En2/BGDZFu4/6bc1qLasrE8vOZZjZFr86LXC2vbUH/1g+on7EttTeq7Ez79ZKhR54+oEG5MrFt86JVyaeeqhtHiXGb7y18lZ/tazJcuWzVl14DSnarg2Kc4N0Qv7qLZW7jpkIh71jcyNzso1jeHmrmUZ7q6FZW1qKFBawnaAsQJ2KNTlIckMLGKeuGtT/Ex/Je7JXIFTUbvsm8YMRl1Rk4rpsFwTW2qw/YW7Qzwqoh5FPGhvQEdh4CuFYcKqrGiM1qRNypPppLf3eD6b9qr1Y94pImWhqOtFxRcFCApW1CfBLz+4PY6A+bJ0Pb85o5qykIyqiKsqFVVbYyeiNvDbvmT6ikVeZaXEHBJ2t3mOq9d3WMbXfqCCCjTVWOWYacqGjmLXTg2OFzesjnA1wvjaE109SpeWgGIAqaA+w8qijiZnvhCCAT8Q6aS7da0UJuxuQ8eFtob4C3uKzXXWNTZNrFZmWvLaWA4ZGR3mR0dzveei2XS9M9YcnbKEubSoYGCkkObW9eqW9QnP1tmE6GxyATjpAgp7vgzrO+NRB0ohRtVlcf2XV0e7xo7HDES8fqW3vpMJ4N6bkkoiIzOJ3/hSXTYKrucRwXxZbepORRQQG3lFIxfTLK9BxsTo2uZrT2YsiUoKxwbicNsaicL60iMqFSUhRGCwsdYTiEJeFrjGwIhXFZ/jy0scIdy61tralYg45hc/noi4LBha6sWGVS4COpIFQtHHX/1UzLGFYZJXxktfUGz4aqsSMyci4kuPxQ2LMISNnVHbJmMEALQ32JkoKxsNsV+RXS2pqL34ylFe7P2VxeOWkHGxLDIyNN0/ZHa8mKlN3bJmrnnjuBIXw7eIcddxf0UdDU9xqPXqFVgOTLlilBA6gchwdgJrYtxb4PNj5tFtdty5OJ8LVcoW2AMTA5G4UFkSGcohHxvg2SLUp3hwijqbLWDIxM3hXnaEiXTIiXGyLDzRH6xstvf069WtsLLu4vs0GdGYxVdpITMjs1gseMUMkCvintNhc52YnAln8nz3Vrd/xLTWilcP6bUrDBmoaJotCsFmYjaMR52NK2TUhouPLixisfAuWAaz4IrBxZ95cBrePJ5/YJv70oEwEdXdK5ygIipGj03rllrhWehrMTapa7Pi4MGgu11uaJW8UAkdCJiqb+mCharFdFmVJZ4rmpeO6MYaOxWh/nHTWo8RW+Qr4en+8KYuZ1qDZZvBaSXBGObJWb1ttcrGLzAeJFNVhi4UoVuCTWwZZITMMvD1VP/Q/ODQpM3BqhCTvJBeyEDAL+/Nb1qt3jwc2rZMxuMVP+wb9RHthhrLEXrPqaApI84MhMfOme3rI3HXXFhfhmGuDEXfVAt2hCRH5/wN2YtlQSoB7T1ZHhjnVS3/H23vHWVpctUJ3nsj4rPPv3wvva/K8t639y21TEstgWAkjEaCgYFh2bMsMGf2LHuWs4vYnTksOwtzYOAwIAQjCXnXQqa9UZtSm+ryNqvS50v73Gci7v7xXmZlZmVVVwqIU39UV7/3vYj4bkTce+N3fz/53Bvh4/enko4WJL73crklI9yEc/JSsL3H/vLTsx++v/1rz9YePUoDRdlcW8h1LWaq2jAzIDLWY1WuQsJfUgFGmFng771SO7DDe/mN8rUJvXere3ks9G3vyRcW5xaovcViprGZuFKuD0+ExUzcl/f93DJoCudrEGoJgIgmjHExxNiAFLiUXcMfvB7+9bdn9m7v+cKTM12t0JqzZ2b1mavR8TMLd+5xUwlHUPTqO+VtA85XnqreudfZ1ZVYcrCxGppSFWKDDcrB2cW4Gq04gRjma/DkS7X+dh7osJ9+rXL3fjHQYQ+Phk+/ERrDSohiFs5cw3q1FsRwbSJszybySYVLMPTJuagWMC7jszbiNf1kAT8yo2Y2zD8e1ucmoT2FEkwzgcSwe5NbSPO+LUSAaR9sJfuKGMTUlkFPiWqPIy2wLPQ8SDnQSEM16p6nyvTOKMxUm8LFAcvvntR39GNaNM9xS1F/h+VYpq9D1SPqzKNE4ds01ClbC24xrXW3KqRxR7/fksJ9W6zeVoSmj80G4M0RuDJHmrmxGGZq1guX+MM7gKjhHHHCxR39dmeO9g15Ax06YWEuLZIe7xnyhrpNJikZQElVT5lUUrakhOc0BRwYIYrpB6dNJbYapGpBJE5P0pV53pTXBA0IFva04geOpZM2Ht7ltech4UDkwUCH8K3kQIf0XGKEmXm7u2Dt38q7+m0Ew0AAoBEul8zxaxyxbHR1eI7fGhWbisaXDIwImHbprt0JV+n2Ah7YZve1Y9rHgS5Vi1Uxq7MJmXQxYpifsy0LsinKp4WOQMeAEiLi585HE4v4k+l7/ZOYaJnx5AR98Ti353Bz3gho3knds9NyLNzVb6KIfQ/DCLtyZAynPJKEmQQwohI0NwRpVzdcBw1QquO33uEfnIJ63FjfaBi+/rbY3wMf2wcWaWR0FRzcLOu9kHBxS7fybY5jcGx8z1FHCihkRFsOw4g+dFcyleDWjGjIjBhgzXihJP7yhWh0Ti4tM5yp0n97KerN0p5OFmgQIJvgRw9ZvoPbur3YmJQL2zplJhl/8JjIZ8hWEMXclkYlnSDSloVJp0GzzrGhZy7Iv/5RFLIQxIo4jOCli/CVN+ETR6jNNwSMAPfsdvf2c8o1P3W/49moJKRd2NKt4lhZihWZaiRbEiLlY2sG23OyoWWjAUYWxJfe4FevNJTbEYAXQ/HfXtI9OTraBzYxMCRcePSgUkJKCZs7LM8Bo5Hyoj3N2ZRyLWKETAJMt7AUz89SYj5ZXuwB4fLc2OzC5JtvmMVyc2Y2mgP4p17NlkP88ls4UzPv3yGGWrWvEBEZCINm8DNZXyYKxfHKMr4KGkqsJycQmGJtxhbN0+flt0/wuWlhmgGEYcarM/gH341OjcKDm2UxpQWKhhz9bAQMVKohAHMZAARoMz0u/OIWsBKL8Y9nZjUAlQJghkrEp8f4yXf4qXNUDa+LoIUxPnue/pdvmQ/s4L1dmLSgoR9aChrbOk3VEAGm64SA8yVoKss2m4AajM6BAZ6p4HMXzDfejs+ME6HpzpltvfqpN2BkXv3l83C1xA9s5d4sWbLhfuN4FQHETLD8zhqgJUaghhZBqQ4A8vwUI8ogMhdm4MmT8Q9OiVJZwbI0D8Mrw/J/+4Z+/x4+0stpmxrVkUv9I6w1y0kRYG4WkJGhqRIpNCSHKTgFxg1Ih1CJ5IL50ALPCvkdMFUDAETYMFnDQO/KUPtPNSMGmK7Qt07Aa1dMxiHZJEJfjrB52XlerqbHFSFBQ2OFmaoRTJbNXI2MaZz1pjEDBuDcpPzz5/Gbb7GjaOVEITODWbrLQ0ZAiPLFmZasc+aMBm6WtDJyxDhXEVOLVI9hJXaXARYDevoMnrzGuQRbZJaCxeUNSy/93soFuorUhU5Yr+EAACAASURBVBmCmCYWTKmGDOja8aGttQd2m0tj/tkRvFSiv3uVv3+aEjaLZdXJJRTU0uwsT1czy7UiEEdtxELAEwtcCWlJF4aVFPme3mxf95XRsf/81KW/9UJFDa6c5VinUdu+XJTM1ycKuIX0L8V8V61CeIWNQQDL6L09/Z88fM/Ei6+fP3tuEI0toBTHlzQtNjl+/kULjJgAuBbR5ZkbWJvRNN0GbkIJGJmZAHBJxXFVpL/ihTW+t8S0DjhX5/n6im3g+vMbehmMhhiBWaqxWSkXa3W6cWjrYSIQQISaRxZ4ZGHNZ5vaOsgEaIBFQ05nSWj2xta8GQki9do5mK3AtWnFQAw4H/BCsJySwaVQyzRTDkyIhsE0zQeXZ3Xl5PDSzDQjPz+X7r/vruRAXzhbOvHZL4yOlkxztxDXv7RELg7Q2FSuI086COZsRhUBNxm4o452+cRP7d1z6A8PHy198XOtrz5naagJPM303yN4Tos6QGM461rBPx1vhKuNYLlxk6yboZ1gp9BjBk4bCBoQF6Z3y3GtiTZvRPUYABTAimEvQdEyLwdQIoqMDgMNDXXz2x7CDQ9fUrLS2kV4QOG8jn9kZMRCI/Att3et8cokjZRMFMPSm2u8qeWC/2Y4jQCKuR/1oDRnjLmiZYzLcm9rJmdV9xDASfpONm15nkVseZ7BEpvllFUzbUKMaYZDkmKMXjdY5oZYNAJAxGJGa5TYiGx0oSge/2mx74iwrMGejsFf/rfQ1w1f/5KoBT0UD0r6i4D+IYyrqG7sTKP9S8DWmokHaaiP9EMyOijMgzafZXw+kk/H5nVN1Q0ScazTEDzgY9IcRPO4pXtYf1m65yPzlchcRYm8HrlRY4dv7vPvbmStRj+uYMjGj4nafEx/E0ZnAX8QqcWmsPVN1gCDMRAauXZZASBjVx6mFuqhVsKI3SJ+j+RDSu9D/VKIT2H8krZOGYpug/V05trY+I/fbI2CuQtX5scn13CzIHAB4juVvlOaB4T2hPh8xZxF9fVAlokYoAp8Wus6oMMcZ7P8wY+IPQfKx1+NJseEsLxjR+UTH+PezdFf/aldmtqO+mOSTxr5ur4pyu1fxozQAEAazaec+JekYQQg2m9wv4wfFfhrNfXWT8SPtfIniOGo5P9gxTslCxQGrY/r2Mhoi+3+ZgWjdUbLAGawtaUlk3rzwtV6fMuiC0aJ5t/Y+ldVjBIVWo6tf0uaK8Ygia+EGkDc1Iyuq6ev3kIMkIx+7iH90tv6udN2G+jPOHqf0EACQT5k8/2svxbDZwK89G4kK8wYhfG5Z1668NzLoE3Ea+96JPBjkn/XobxANMRI/zYB2pg66K9GpIFrrE9rGjemN53Gxz6k7r534cdvVlq6wkMPY7BQe/JLrR/6CB46goV87b/+Z3P+bEQk8FYFf/+86MfrKhzEnAEuMDOQaW2L3/eh+OgR41oemA6jHdMELS0t2Zup/q75l+v/aYMpgHYBWVr1Rx4O/82vxV09xCrPcaGxed/wTAR64I5jv/ChxxPOWuGV1Z80hCZnuAAGCGI3Vf/FTwcf/Cm2HQeoyNoHRuQV/eelW/hb3ZUzGaPV3z6V+NF5S5qoHYwPxiirvmdv+IlPm137BIk8RxnWkvndJgeZRawhjOOQNTOu8MkZgJPILWC4rRA8+GBweH/9ox+rv++DYNsDzE4z2lTngT4vvKt338cPv4fDWCcyYUu3lk6YKJi2zTw9oYXQ7T3PHLj/Fyv+r5Tl8Vjewrj/uczIAGps/mEEsAnvVfq9KkIpYc8BPHzMeClUToeAf+WZVjKEBld8BRoL9kbV3BU6wIiNBKdB1ANCv98yfcQiis3ohPITEFY1mjsJP2wZBXrFwzWiATSM5u++8+R/+JM/na3Mr94qGFZ/mNC8xzH3uUYBUGub3LwZB4d0OlVE/ZjF21VDs2xF/0HDTSWLuTGuhk94dZLrgbRYfNrRm8iIZEoObYHu7mjTpkjZxxQ+YOuUYERe3fmlh6/iXL9+M4gIy/0h1PuFedyGpG9b23fLex7Ryko9/F7M53/JN9s4akQuJab/WtZ/cHn64sQsSEVRTLUycARRDYI54/nCRMG1a6+99tqz2oyjikDeArf9Tz/UGAAcpVuTJuejFM2V4SBsRVJ1MBECsECk7h46d4pqM50tuIu51TSmhAFZG6iGPLEI8zU0qySLG66oSTu6LYO+ramZB8FNAosa5CKbGJxiUZ94U80vMIPwo+0Fd79eaYwcaTNThclFrIRhJViOlRo/xEpwIcEtCbBlQ/yPCWE7mUQNoAJgSWYQlmUCjRJyCb1LGjLLoAEGgFoIEws8XW3Wiq3wnJiAE7YppjhlsyBucJR6QJ0Wixk01TJPT8sDKQ0GOBJuNJiXBxlmm/snA7A2MFeDiQWuhrTikqLpDhGalgQUk2ir5hZMgNsI05plpYL1WqwkAnOlgkan0rgzQ2KJJA4Bgsm3Lj79jf73PWF5tj9xKdQBlGc8myiVDcfGat/+Ip16k1AYAG6GLOs7hf9UM2ooO9+7md+/02xvl55FtJRfUFXglxBPB3D5IrS08PBlni3pBAw9JP+wKJbgkggAoYaRefP0Wf7OCXN2ksMVjhMhD7Xwh/foe4e4LSMUNv1PRPAvIz/PXDIwPQXTsxzGjIba+b2P0X0gAfUSMBzLYXxylL/1Dv7wrJmt2suhFoJJ2OaOAfjALt7fDSmHqDm96BjtPkv8DuPsNJx8B+ZnRVABD/qOiN/eLvV1BVLUDFOL8QsX+StvireumbgZoYtGSrQvz49uh4e2Qn+ebNHwLoiZU4tCfyPEmdBcOK+f+r46dZKjUHfzo3eK+zJkGiKSgABYj/W5Sf3dU/C9UzA637xGJjAAaJE52AuP78ajA5D2SSyJnErN/gnmEZtnZuDSBSdfDF58huZLdAx+Z4cwjQ0MwADjZN17+wV6Kq0efkxWqmbqGvi+deQuPTm+8PyTPzp/8ZWIewnrzDNs6oBm4y72CqtHRCGFkIaNiSMwZjnBk7DNh/fwbzyIm/IgkJHNUuEK6LqudLC+FsHVk/GFMyANKE1FzrVyWz4CXFXmtaOND/fA5jz8P0/BqanliMD0pPW/f5Q+chBsMI0sb+PzBjkMKCiiDtmc+LGM2fgGhRbd1NkaEzdZV5aUzM3eLjy8Cbxvw5fe5ErYHJdS5u5N8e+9X+5tNwIQUS9tUhgjVLsgvBZjdYQ/91dAhvxYZEW2HdvzZqX/zADbWvWxQXWgz/zuP+DbE7xkptyeMZ+6C3/uCLT6hpa+0cgCxQlY6AAOYjF2mYcvs6UhA7JddLSxSMfItKzBzsC72uBIv2hPx3/xAk2WhSTuyQXlKm1rFb/3QTrWC5J0M3XWXDkQzGD1/OX4O9dEHTWD9AC82OqWg0WN2NCEBAYThaZenwuf+Z5JpeQ9D2NvLwBGI1eCF587/uqJH14Zv6M9GExGc3P04rR8IVKl6xms2zcjZETwk8lUd2eyrU06ntFRbW52cWR0fnRC61gAbm/jj+zHTTmWCMhmOU+NAGALbxfWk5GZQhrWkGXsIKtTqjRg48ONRbFUdZd14T076cQYX5nhSowAKIgf38Mf3M02coNScxmtJxisIsIxEU6DucA4D2ILYQqcASWaYq3cdLcAGEgibM7xp+5Rr1zWZ6fQAANy3jWfvBP3tRtqdITN8roRAO5Oia6OKwbe1ugw7pAyTVb30rG9tGUiAIOw0NwzyJ+8A37naxAaAGCF+o5B/vAebPcb67+ZCm6MQDjo32UFvZGZ0DiG1Cmwk61OkgkCwGbeeMnwkLArpZ/Yw29d5W+fBEncXwwXF9Sn71KHu1iJxu58fXIYQPQK536Ox5kvA2lWWwlTwu5R1FxezTMZFaNlRGlSf/87nM7A/mOTs5PxV//hxIXznzt79f299UfvrPiJKB5VB3/s01X4tpbBelHqzcyoaUOF/v7u/fuyg/1eLgdSMWuoVoOJibFTp52FxdZM6vAmOzfEJbfshle9+JqEqFnxwYAIIoteRuoy6y1IPlAGhGxQPzWgXIgrbJsBignY1QF5HyrzAAA26Ud2ClctZ09X5jmZFFv9QvZg3MNQA2pF4S7tA7D04lZ8RwDu7cTeTHS+RIYRAfJOdGe/vYKUeFXGTyUA99oQctRpUIFoIxJEgIy8fA9+nU7BsEXi3q3ofjMIDQGyq+LtBe7OrCygXh4EA4LqQNFm6XkD8yzSROkGLXYDLrC0vK7/BPbn5b5u+N5pE2k6M+IMZGBnB9iyYXPNu6alv4FKgNwi417Qg8zAqhWFJGoKQppmJQ8wJYlbiS+wuDZsvvXll8+e++roTPDG8ZPVmiPo/s11vydANMo1W2fVPRPq9Zq4tl7N9rpmxIAGEVsGejc9eF9+0yapbICGf0cqk27JpryO9tT8QmZxoaOtplJ6ThSmvD2t5WfywYnGnsQAgYZahK4S2kHRZeoR2sgS2DDWQukpQ8RratQlctolz27m9yzUbWlHQnRjMjHUVA7RUsBAVNDVunAFWBAbwFBLYLaEEcs4oKUw2UadSQA1ETtsy3i94B8YoKYpDNB3dZXJ7ebFQCYBiMEQhDERsC14yR6Won7ktAO2iCGyEdCWkLJZESNc13NmBAY2gPN1UARSskkK9iFk9AEAdWxkGLMnWODSk5uWxJ6SOR8kRoERo3P2phbjquW7pmbIH2sMNQk0kSYljZFA7WTYsIC5KiZtI1UMTGFMzGxLIBeszWSGY3PJ4Pmzz5+9/NWataCNButOqd1687qJHSMK0dak6Q1hVDPDWkqe9cwIAYC9dKrn8OHsps1CWUv+OTOCYWAS6XSKgY+/cbxQOtmaNsp2RtKP16xeDk4zRAhQC813Xg0Wq3DXHnd+MS5XzbkRfWSHFUVRNiE//4+Tv/ThXC6xClG+7DsvK+ciAjX8rRuqwebK+js/qne1Wa6NnQX6zovlTV2irWAhhyMzbKL44YNq7d7LgMCSrmMtsbkLrcVFGIZvvlC/MFL/+fem37kQDXapz32/cmgL9RWtchCPTsWdBXFgs71OMs7EhA36W2xICq+0oaVx4kIAf/Ll+basuG+fW5ozE3MwMhVv76dcRiyWg+GJ8LEDTtoXa7dHvK6+ZQCRCFGv7Hyk4eQlffJyvb0of3yqvntI5lNQrtPoeNzeKp47Xj+4TXa1SdY4PhcQm/v32ghotQu+C+oqqo/C1emwrkUMAgCHQ3P+vLM7YaBLc1pD2vTmosEZ+RpjfMPrWP9QI8SWvt5sX7+UNi7FeAjIjAZ0XXPBsjmdjtNJ4LqKqqG7NUbfDkfINBMn9cC8dioEQbs2AxJeLcUvvFHLpGhyNj60XV2ZiKoh5244YnmFz7H0D+sgphHYspVyIqRYSEmEk/P1O/ZlTo8Y1sZ35eXRAMBa+7XGE5tC9yu2kRs+otlcuBa+cwUjJkCcr+HZy0E6YS1UY1uqxTrLuYjZWnMBsSRZbFbd4S+feiubMbOLVrVcfeCgixLnqubCaGDZ0pvhbBIujUa13W5qvZzxkv03ju7GLdqSL86AyPWIzl6LhWWdHzVd7VEhaylbXJ6sl2vxcIlzk3ohFhwbS+n52RiMjQhCoTMgRI6CWWfyK1E00qxGmWD84zH31+s0lIjtZEgepCPeokzGmDojr15765gRAReL+f6dO/1sBnHtFSkButIeC0IhINfaJoPilN9eTR1LV99Oh+eJDSIYBs+l9x5zS3M66/FCXe8ckAnL3TGIWc8Sku7a41qqiYl4N7DduokKdBQf2ebYdjxRiqQQjxx2ewvck5UR0JVxbXXR+tir27uCkQh37bW39RnfDS1hOvL84AG6e6+bS+lqEF8awWzSBqAbtvZ3b43fdwUf20KDAzkh2bH05i7syiZ2bRJSmNICmMg49s2gY3xLUJnJpcz+zdDVYVxbDnRKNuwIvb2PhvpdktW79yeyHhuDl8dNi3t9t0OJKo/SF6Ed66WnhyB+GMOZabu/pPZa7l4r3kbQj9jOPHGDJPk6ZrR3z+73fOpXJtOpc2FomntyAycNDDIGmgsDAtbG5Drakt7PzmahrfaDtsrrtikTkAFjyEipjmwTkbGUCDuZANRQh5KCJRkD5ol7UyiIEQwgIm+ooo+ZNQFZurtogGU+SYQi57sMpGwNyKkBNtrRgIia+LYVq5q8CI0YSRzegjEQST66A1Hqn34wS0IoUU95opBCRjDIQEwNRpHb7jwyawBpycfuYiIi1K1pi8EYlhaBIJNyTWfBEUhLwKFbPNpAQwW16fkZAtndCl1FhWi2dNlSGAYBTENdKAk670spyygEAybhK22kIdOonCdeOnpXWCgDVBDPsbjI4pkA7LrMArcSTzahPqu6so4Z2Zb18ss/Gk/42X178Qb2QQZSArZ6bn8i4Ziwq/bGYOkbWX1Z8FJPmObL6nf/y9ivfaz9L740sanH2jdk14PF8TmFLO7ebTkWD5f0H/7NxK9/KHPfftXwEW9/VYdMT71WGyvxvh3pbz49fWS3Nz5Z3bJZ/Me/nPrlj7Rv6/E1B195vjY8Hv/Oz2ZaktGGCvoQYLZm//mXpx670/nqy7Srz+4slC9dBQP8ygnzCx9MtKfw8nj9Cz+sH91hf+BOx5Yb3I8Q3hkWX3lm7r13pv/qa/N37seMY5GSL741s73PuWNnxnejbz5b/eHxuc/8amtHTuO7cOlf/3FmMT4b/r9fLGd82j7ov/DW4tEdji2hGkbjJdo95Pz5l0c//mj60I5sNYief3P+R29W/8efK/blr+tVrDsQRowBYsA6YBnNNQCN5kYI2zpm9Mprx+fODvffdTSxdauVUAbiRtaTgBXprJL9fqrbcytB/Ycvv7h38Zs7d04JGSEDMgGCRpBYLWQsMNjZnkgn46FeOT7rv362MjtfWSg7pYXwoWN+Lmknk4qNwA1q8wqMfdcIxz5+uvLWucr+bXTsUDrvw9aBYGgT/PHnprb3qWLenpwJpYxhg1KYDOhIo42ZmrcuXJ6bHp/9Xz/dWkjDN5+dr4Xw1un6N8eCPVtSxRwomxE3LLqBhlrz1mJFLFbichALow5sdy+NB3OLeryk/+br4z1dTibj5jOeFOKGo+Ndmi1FV3uqFkQxyHosQPLunX45lNeenTl1cbGvM3VpIjw9NiNZ9Pd6blIr2Qj+bzZBCKuMGDUTMjOLGw1vHTMybGIdzw+PhKWSn0xIEgqlR9DhOwWb0sqZqtVeLE1fm5kbPnuh35oFhkbWtfFYAkDhDXVrY6JiKmzPqNI8mVgf2GrFsXNwSCR8+8qY2TWoHIoIGd5FVfgG1A6ITMrJ18NN3U5fW1sxB5euBP6AfPhwouDw730qG8XmmRPR1l6LzE9QW8zMvGXA7miFRw65bfnU2HQwV5MHt9ktGf3Afift++OzXK5FrTkBuGG5VkO6FkQDndTRIu7fZ/d3qmuTUcZXj9+bLqRxqDNFCK+c4m19LBTTRj0vwZlk0NWKXS367t12X6scmYiMjrta1Pb+xPNv1O7al+xv03Ek37gYbe1RHC8xoqzvba3z6zfTFVvHjHKZbPvgFsfzuoB7XCdlu2nbUkqUo2i4Wh2rlOdNpKOwdPbC+DunzM74BkZTdqzokSMq7WFb2pYSlRUAQ2+RACjpMgnub5WP38UtSQvY4Dqmsgx1bqCdVwUtCNBX5IyvbNtk+rUtZEsCHTvuLKhaFCXdWBLdMcRhLH03ZhS3z2bcvJCC+NgWy3fiJ+62ZhZMS45m5yGVkH1Fy7PQEtyR1w/uFwhI/JMoGLUk4/ccsQup+JHDSpK0HWTW+RQhG0GRELR3s+lt8zzb3Eb8cb0hY9qBh/fbTGQr6MhL1wZmZOChDmnb/OhRmU2gklIh7uyRg22iJdMQqHzXnzAr7ptv+2p229bNd/30x9gYHcXB1avTqdRIMlWK6mWDwAwGo3p55uKly8+9ODs2Djtv2HsZajF/6Zn44YPOt14ot7XYu7eoIDAXr4a1GPZtVg2ZrM9+N/zQMdw/eJ3CZ0WmlxGJkUCoGwaJBuHyBH/n5WiwB0OtB9pxvgx9bfA3T869/w7XUeRa0elhfXHU/OvH/JQdb0DXgwGAJxf5i0/HuzaLhDLffLH2W5/IvHq+vrNffu479X1bnU0dJozjU5d1GOEjh1QxvUHREMYrU/CXX6/+7MPe2xdi3422D8j5ijl/JYhiOrTVtV1erJlvPlf71+/P9WWjdXId6/8dDMWVKv3geFytR/2d6o0z1T1DIptU9RCvTZqeAvzwtfDgLu5rJaPlyEz8zoXo596bzDnxuxkrE7EgiLRZjRBf1dYxo+NvnPjR2J/FOo6CUCO2btmc3zbk5XOgLDI6WizPXhkeO/HO7PiEhU1dzpVdYUQ2dGUsGp+B88MRCWFLp1yLz42EixV2JSyUeecQleZ4buEG0jhmEBZ6PmYSqBx0IpAlxqiRqUUGBgbmeoCTs3FbXk2UqlnP5NJ+xgcbTUdBfev5WnueKgFNzsRRzGBv0HdBDkOemI26K3h2Up++UmGTySVkPZbnrtUzGa5UkIHLdbFYjcPoJ8FHBFW8NhHUQstxua1ACZcWKmZqwQSBOXPNMJt8lsZnuVYDyK55wc26TcZlEgezYvrIACzWzEQpTiet4Skz2CU6ChixuDgahoGZmNOjkzA/rwBjx8HxWVMLCW1s3FytAMWtqHpBo4TpLbDn4tuXG7mw2zajaq0+MzWz3PUrx98YPXMq0ZIXlsM6DhfK5ZlZow0jMuF1ePrSeIhZSj66Q+ZT+tGjXj5LaCJX8h07nVpodvRJx6JqDY9tw74OwlXFNAwA7KawdQD9LEuFssaywlhdzuUhACIk/Hj/FhzsFC0ppzVnBbUQQN29x84m4w/d4xHr08M66VmWxRvlyGJA39Z7B7C/lbZ3Us73lOKoHmR9fOyos6mH+oqyFuHZqxEwJb2NxZiNlvL0A/tla5YsyQOdqlLhXELcvcc1MQ92SkIzMaPv2S3XSC43L8yUg56FlZgbaV68noInBkncWzQDHaKQZkXWYIc02riKd/XzQJcdm9rhHU5bhuKYrkwER7cp34oMrtDbaNxM4SqiEUEmnzCphDgBNwVi3xbeSAPqclAvj6yOem4xewhsBjpEVyt2Fq3FSuw5mPRlVyvMLeisT74L6EPiDq8WaG7wMyylwQAAlGWcNNc9BkAI1ns+pxNy3xaZSVEq4aZ8CBJsS5VMxBMz3FdgZDqwlaYXEZENIi3dOt1mS6esPUNYyFK1Zg7scC0BvZ3kWnpHv+xuUwkbMmgsJRHIczbsGDFgMkVHdlqdLcqSFNajhCcdQ45iBJPxjSTI+uS6Ku3qJcYKuF5n42dEa4uYWzALk4j15iOXmm/DkR12uc6OwqRnp32IDKOglpRMJjiKnM4WkbIJgJOebMuj08zzN31PgwS4OtxhDCJ867KwLTK3FKR/VzNac/W90pO+6csZLeF3XtaHttUqdZ4s8T0HbGZz8Vp9eALu2uvOz+mhXuvrL80D4ScftgSYRnZkCV6zVIG0eqdabnFM566Zt85X2/J0fiQ+sNX1LPJsfvUs9BRhvspakwTz7RcWfuqh5KY2zUgbSQ/CzLz5wfF49yYxMgkXrpV/82e9a1NYi+R//37pvgN+S8ZxlHz91JzrOA8dtFPOxgQkEfH8iPn687VPvi/xxe9Xju72BtphrBScvBQh0o5+6VnkWObvv1/7mYfcLZ0xXLckBEAWlkm0stVKThqdywDzy9ftDLxQg2+9VK/HNNBpv3G6vneIinm5WOPLV8NiFn50Otq3SbflLQAZxvr5H9c/9ki6K81LSB1kEjJVQDEPZhkKjMyiFnEtWonD+GdAPzZS2rd6LcwwXzFvnKls6U2eG47ny7xjgQXGo1PxW+eizX3OVImLbXj6SqAj5EeclcAdbMgu3bJuRBscn4oujcSC7EujPNAJVaX7DS7MR107/KlZLEeg4+jM1bA0bzYkkNiwh7mFaHhMt6bpjVPVSkRa09RsGEbx5dF4pFczAqG5MKJdN7ojsFLOxtirDZuJaX1uOC4t8tnhKJcJixkrjqlcx1oQdy5SWZlIR6eHw5GpeGsnI6+JQJCBtHIo0wW5mEWNsb4cm5RD/daFGNn4njp/NegqKM+Bck2cvRKEsTx3JWrLsVBWHJuFsj47HJbmTFd6JXwFId2FCQvmxpdqjvGGxNtPuButmuel83El3PiGhtBdxE99uLCtW+zpi6qxyaYNssomcfugM9DB1EOeG3zqsWQ1YjTr0NGuRf6sbkryvi1OV5uTT5q9Q25rDiINSVu/906nr8jdWQgZIo29hXRXYSNhFDZ/ur0gn7jfacvEPe0ZA2hTuK3PTXrmlz/S0lvkpAsGsLMlhYApf8OuEQLt3SrSqcLmdvNLj6dyad2S5nxGtWQFG9OeBUQOtch/PNObuwlxOyIwsbDYSQHJZaZ9BMj79IuP+XHMCZ/625KtWVYS2YhsIplN6d42t7/NJD1iw7VYbelOdxf4+pbfuBWXrsj3ROUSxA3acnF9am7ZbtOMml68ErovE16cIc3qZlS+CJj2eFufyHscJSg20pbMBtIJSqUoY7GywBiTSsmClIDhht4EAyBxMcPJBClFfhI9m02shBWkEhDEJpMAZlMNFRQ45RvcyIkGwAAm5dFQN1pKZNNYiYQk05IG1zMDpDKedm3WhgEFsFFiHZDJuzQ0HTl0HSfp1Qa7bEtGloVs2FbIIFKOQcI4pogp4YYMElbyCa4K2tZeWjMaIaAlrYiMVOx7lmNpw4DIris9WyhF+UTgKEBDMkSS6HlmeVKXR2G8rEjm9czozadoYyDateMH4JaUeeJB89f/6I7P39RtN2BGp9QffX7y2A773BWTTNKhnUogXh2PL47EDx6x5itRf3f6t//T8BOPFH/mXnW7HVjqvjb4ymn9wpsl36PTV+KPPpAI03CqpQAAHXhJREFUI9izOfFfvjq+rcPbvUlUQzh5ufrG6erv/nxbT8tGKEQZAGC6iv/ps2N37LHePseXRoP/+Bs9//j64qFt3h/93fTdu5yhbp4u08tvhp7LP/eeZFv2OrjstvpvzNtXze/9yfn/4zcG/s8/u/LeO9KHdqVGS/ULo+HUtL5nj+VYZngi/uL3F37rZ7sOb19SgL8RqbCiOn/5n0amws98dnr3UKqjQM8cn7l7j1PMydkqXLkab+pWX3t27p4D/qYOEcX02pnqpWvx73yyvd0P10yAIUWZDjM7wRyvM0G4nBRd9fo3UOgOTJML5s+/YU/P6/WBOkvPDHWsrMTsIk1VIlTSsUUmJWfmzInz9WsT8uU3g4UK7dpSeP3N+cYlyoYuFJiRQRp2lHIzKbce2sWcl3JM0nLvOZQ+fRlOXMJkxs635C5dqzcYFlYOYvVrXweC8taZ6rUZObdgXRqthDGBMf1tnmGrWqeJOXj7Eg6Pm66uZBBZc/PxRkM1Q+Yfn18MtKqH0N+du1aKPU+3ZUmxrFbg6gT8+Fwcamvr5raTlxc3dJVjkCzLbimkJmd0EDpRpBi4mBG9Ra8W4LXxmrLchcX45GU4fYVTCS/tOxcvLtwwCQwA7BdQrjxtVlR1NsIEIchxVh5Ht7kbNW7pWBs5V0duEDncZJUTmEKWj22JDu9xj5bsUOtMwkSBufeQu2PQ297Hj99RDDi60h8M9eUlmwbb3+3PmCDT1RLds0+2F6yr42KgHafnAm3EY8fcjgx/7CFPM5+fjB2K9213lnhVlwbBACgaoLIGtTmAAGhSMTdW/n17/Z4OK+3j/qH2yRmTSEa1epBLhB+5z9k1KHuKFMR0/Gyws9fubd/w7Smx/M1/lbv/kB4s6nv3ic6WpNRGAh7YLA5t9bf0kSKnVGFF1fsOpBg03u46ZwRM2eaB3SqVkCk/bMs4XW2yFsSsa/sHaeuWbCpZvudAqpAwhuH8tag9KfZv9wH0mpXAwCwI/RTMLfEvNRR8UJHtUKKAqSK4KSMsKF1b/taGXGwEvlUF7nJLWvK+QwnH5mwCEIQgNszA1JknVwGjcQDv25+yLEBDsEEBbAk00KbaWlgQFjKWK7mYs1wJvR1UDTjtsgAz0GK1paQrAW4QPCM3K1IOBRqiMlN1TVCICAq4mCZLsttJ7W1CGDgwpBK2unMXOVaEWtio9w5IRrTVhl0jQA5rMNRlp7zont0iBrQFZdOambRBYkCGvEMPHUkmlEG+fVk+RNCeiwe3sSALEYsZbUnDqBhwoMMoET9wwPUsaACw+tpVR0HZjeqEG/ZkBiQnBTDV2KmIbPAzlOs0qXxMDlyH8m54N7re3Xf9hEYYmcY//uLs3Xvs6UVybDXUbYLAlBZ5ZIof2OcZkIUc/MkXFo7u8h87bDZa/h0xv3gyfPFEfbBTvnkuPrbLrwf68DbxhR/Wk170nqOpWl0u1PU/vhJ84iGrv1XgEi92o7AHC/2mrwdiElBR7lnAq7QECGUERpxe5P/vy/N7N9kjJTpzJfrff6Xl609PHdtf+KPPTz100Nq1ORGG5vV3ItuhRw9B1rvdY21JYkD/5Ter43Pi1z+a+vqzVR2H9x9IjU7XhyfM9Bw/fCSZTIqgGvzDM8FH7/P29G8g+mDA0kL8t0+ZtrzIOPzCW9UjOyjli1oIV0bjgW7xDz8oP3YsuWOTbWJ5cazyzmX4+MNWW6rBcL/26GdhC2AWiE5StPTqVFssLLjuEazt109Ww7+K9mDNI4lRWJBOJxdq4uJwbbpUS/l2Z5szMxueuVC5cK3+5EuzY7NyYqZ++vz8xoEcWA9hak4v1lAqK5WybIt2DXq5JGTT5r6D2TfP1X/42uJIKZqeCUcm1wEmNg95Elp67KWZ1sJtrk2GlVguBHG1jgu1kNns3ZmsR1EYRLMVePWdyvHTtYlZfWUkWFiIb38varwARJFO+wuVYLzEF67W2UBLlvvafIEYxXxxLHrxx9UT52vTC/r85frGJoehGtDZS4tXr5UjjWyMJbC30+rpdDXjxHRUKHiL1eBH79Reeac8PBZMTFZGJwMEXlMv1EgiIQJYjsh1Ye++KNtlxHJZxz9n8XUzULw+TF4VedrK7B0023rllu6kASMoqAd8aIc72OFsH6SHjmbQhB++228v2Bu/k2LX4bv2upt6DAE7CjpaoFyNgwwcGLK6W+L+VicGMTUT2sLe3C3WY2gHaMxWs753LYZgc4/6+IPSd2FuXuweAIEwMxtuH3A+fF9yR7/TnuN6yKcvRwyQS0s0t939JmcW7x6gQjIx1Kk//ZFkUIMwBqD48G57fwRDHVJInFlUyWR9Z+/6JQk3awjYkqKffijhKU4looTjdBWpWovZ6G19sq/DdrzagSGnI2/pmC5PUl973NdurWepyI36zcIA57tjcm5HBPLm5Y5wow+/dKvcqGVciQda1Qts8WnvZiYwHQWcr0DKRQCUknxLO5IsMozc0QK+HzOqDaITQSCnbI58UIqUFClPs01KkGfHF0d4ax8o1EmH27PoKI0sbjoBjNdpBFZ2QZPE2LMo1w62AiWqHS3KV9xbJFtpKcCRkEsigJHCwGo803W6sxva0q0h7ewDhUiAFmjbw4QDtoAghjoxorEEuJLbc5RNNWZ5A7udUtCRxzASCQ/b8ibhmgbNYNLDpMO9RZH0SKJGwa7CzoJIL5/Izc4hCzKSgMEkCyCtJWL3d9fIvkm543p56kY1J9oe2y5aPqMQFKNXBpxb8+W5Knzx6bCYxmxanr8a3nfASzjyynjw+unw4SP+6GRla5/9/Fumt10Mtm0A+dWs6DN4apiff7veVRCXx+L2FuxvcwccPHmNxyYDpdTpi/WhgcRTb1SLWZXxb22ly4vh+odGZ81Xnqvu6LfBiFfPBL/98ezkbGhZ8d9/r757s+orcqR5pIRSQGteuQqus0cxI72rmCSduFz/7JOVT74vd3qYFubrjxxz56vi5KXw6lh0eIfiWLcV3W+9UP3k+62cxxtQIEWjDVwew9NXgk3d7onz0cFtqqNAM2UzPBanHTh+zhzaqRWS78paSGcvBUOdNovlmy1kIFAESoBBpgQDYtzg3OFb8xTevNwRV0pIIAAjGrKSmCpCIgO2D8pFkEghJK4wrmHfhGqIpVnQumbAm5rT9QAsATPz8fBEUA68mYU4jmwpeKhb4tqt4NYzBQCgDS1WzWQpzCfsWp3DCOqh1qy0Nlv77CiOZ+aNpUzC0dmUQL71qbNU6LyiaWOqdT27GFUqZrwUR4YWqyaIaWImmpmjvC9RaN/hlEeuRSuoXgGBkQTJWyVUmXli1oxOR9PzcWlOzy1GQezVA44jDmJTD7lWhU39Kp2AVGLDGqqCMJuiTAJqdZ6aD2t1jCKs1fXVsVqcs8dLYa1u1YwBZtfThcwSbfBy35pknQhITALZSOKCvRhpKFX8pfLd9ds6ZoQkSUjWMUPz+hqBKdUC+UHjZkGp5RViSGkSaySBCSCfgE887MRAQojNXU5nCwrSB7fa3a1ysBN3d/uuI4yx+9rXAmRv3RoflIJ39GMu5aV9ubPCGR/ZsGPzrl7VViAHZUc+oSTft89xleEVX7y9xp05+si9iaTHbOTOIfId3VnA1jT94vv81qxqzyIDzFdiW6FaURrFjayTsFRLG9XLHFXXfzzp/Zst64n0li6RTWoiL+2Bq6AlpfZtEV0tREyObR475iUtetejZE0TBL2tVMw62mBn0W3LCUnCdyHjOfm01d4G23uchEPMUIni3oJzK+VuBARu9+c/tuvt4anU105uDtm6xSyus1lhIo8tfaCcRvIbwYhMO7RtN6kiK4uXNSpWYIRWf59tCekMFbN2MiEySbJtQ4IzKcglyZGcTaAQoFmPzZiNZV2a7HgYhMAAvm9sG6QEQCSGSt1cmzCWwmxCxoaqdayFyOuDTW7aENBxyPM4laLeDiykLUGRtAgpcj1KJSHhGteGIIaFOkT6hjwzCch0YXETSmddCyAmY7RD4HlAjC1pCWiUZWJmx6aEQ2mfK2E8X+dI35xe8iaTozUsVNhE4NuYTUrXIRTo+qol7+QykHKUZ3PSQ99lBCwtmMDcCnbHgIG2Jxf9UpgypG79ntbZjdhyuKWPGE3pKsQh+Vlu3cxOGuC28kYMMF3Wf/bV+mAr1yOqRubuvY5vi5Pnq8NT+ODhxMhEuH1Qfu67lZ5W61c+6EnC9Whjb9oqAbx8Kro0qrf10ulhfWi7ZQvteebcCIZBEIbu2FzoO/Lbz1afeMA5vMXa6H3FmeHgy8/F9+93pxai771Y/sy/K4xP123L+vx3y/u32b2tshbEl8b0Yi184m63t6CQV8Li0JDFmQLpAMtnAPSaGWNgBOcbz5Za2xNPHze5ZOWOfe7V8fqb543vyr5OK+Xj1dHg+RPR//BRa6i4gW4z8uyi+cL36qkM9XfYr75dO7SDe9utubI6eykopPn4ab40CJ1tto5xZCq8NAw//wHVkzM3g8Yy4nTof/38zphlRAJMdIslv67rRCw9bumndJGki8U+dnxeW4V9qzY5p0emgqvT0dhMvFARc4s0X4WFGpy+WCvN63LIdY2leR6brOnbIO9dNTZgBGORWqjihdFgZLI2Ph3PzOkoxrHZ8OCOlI7jSjWeWeSJhahW39h51nj+7IKeWTQXJ8ILV8LLo/VYe6XZOIytiTm9UNFBbBYrenrezM1jFPM60CtGFrZJd4hMJypnjYvMiIE2xZyiKHz99KxjWwuLxrGlJUWtjgZENcSZBS4tcBCQ2dBWDRhHNDIdTM2axQpPz8fVulioYqSjq1PRXJ2vTgXVmAONlTpMz0VT5aBai26JyUENNBd65cgC0QRM36ytG6khALGyKd8DToK9LN9wpXCr0YDe0qH+r1/JRqBijVEcZnwEwP52/+4D6fY0SKUFxP/zL+RSjlaogcWyg7RM7IPMvB4QBQFdG47shu1DTiZh5hZE0jWhVplk+DP3JbN+HdtpxyZZjWhbX747Dz9Bmf3BrW5LjrJZSJB+4sFk0qoc2O21JKq/+/PZ1nyYlBwZe98WAjKt6ZvFBwh2wni9kKgiTK3+X6Y9Kz/xaDKRNP/+k8V0MnIsQhZdrUYIyPtGIOzv9+89BL35AFDBDWTFN21M+Vz8P/1CThK4ig5uz2d9NkwM3Ft0cj7u2ZLszse+xYbF/q2ZhTJ0F2A9rqLVT20OCIEItF4fJnKL9COD0H4W3SSj2ECNDgCwHUNQDax8SjNytU6OFAbBtVkh2IItYTPolGdcBWRomVJhOS9+a/p+gZx2jCBhCUgm2JEojZbGqptqOXDyHjChkWHCVZYEBHEDtS0DApubuUwkyCQ9bSMFsUr7oCFO2yBY+A4kLakQgNC1URJbBDeLNBnRWDZIG1fHEMQkBcSRJAw7W1hJERtU0hiQFhpHIBKHLDO+dqTYkEouACtUadcQsKUMEbiK2DATuChs2+RSwrPYEcws2DLGISkaRYK3LNpcCZ/G5rJkRKRVqpk3z2I3BoFWM4kPzMxwnRwIl8pdbvzd+Jkfx//3Z0f+3c+0nRuONPODhxJRpC9cjU5dNo/f5UzPRluHkn/wV6OtycTv/6q7xkKRiBHNdRz+2uUSxuK7r+ofnVw8tN175UTt4HaHjT64S/zp58vbuqNtg05Qhyul4NWTix9/KHVsO91wcOMtvW4zU4Y/+fuFe47633q6VK2Gv/erhbfPsYH6l56NHr/DKWawUqOn36j0dTgfvcdpSd3srL/Zv/Nbw/L3/2L8/Ued6Tk8usdVIi4t6idfmtm/xe7OUWtO/eCNxbfORb//yx39uXUrGm7ars3wZz4719OW6O3AZ16Zv/+w1VG0Z+b43KXa1j737384954jfn+3pWN9drh2+gp+/CHnwJC8vQwnAlKTjFESCFrj5Nz0tEJGZAEN0mUBrAhtiY4FtgJbgS1RSRB0Y+U0AxSy6oEj3ZeuVhfKWirFhnMZFWszPRfNVun8eBhF0NriGlnnVTgFblo7EiBIpVHoJZzU9RZr09D6jEKTTLKl4r4OlXOwu0W+5+7U+IwemTVdLS4w2xbjqn20QQMpQAqgm1U2czrBW/rEYCd3FdWOXa1p12pvhaAOKVfUw+jKFLAQKV8oREk33Te5OeU3TA6T0XXHFq4FybRhNq1Z7CrI1rRAxrEZPT7HnUUHTKSgbjaENyLjWdxZsGpBxbVkOqV8F9tyYlOvJ105V426Wn0tzPhsNDWrW1sszaG010G/3bQhgRCgFAgJuHbgq3ejGwbOiCgJBMHyFrsU6LMEBglirSEaxL42cWBTuGswPbdoanVozVBk4vv2ebsGeFMHPnIwo4Hfe0D0d7nYpCNcXXnCbIv4YPv4YhmXFMR5OctgO3BgE3dkVEuOetpEWxbnqxGj9chRP+/rD91pG8apWZN4JLGzXzGYNXllloiWBASIuUEbvARmbp77EvH+/U42Tcf2kI4DQ+gIOrYvkc9WD2yxk46sBtyZ8zMJSvmwsm/Nv18v3bvxVpiZzEAH/eIjateQN1GKHMUMnE/Bh+/38ylszxKAvDxR39aVy6UBWK864df4w6vwd4wMvs3vP6aSKSVAd+ftYk4GMSuoHt1Gg11WsSXat8nPpzXE6tp02JVPbOsRKzzQJef0ZkZFCHj9IFuD611lBILIUkoSqgYoURAoyUICiiXNIQJc+gOETSzi9VoRAxBqMV6CY7udKAKlcLBLSQVJH4TgLX3oeiKI+ezl2r7t7tyivjTWFCludorRAAJhW6L6ga3ndrdPolgGnAMTaIDSgqmEpr0IYWgGOyxLib526+qUTngIIHSMo9Ox1qajRVwci6p1XlnIwgjGABoAgaCkker/b+/qYuM6qvA5M3P/9u7df3t37V2vnTh2mqQ/SVNaNW2pGgnUFhpRWh5aQKqEEII3EEJIReKBJ16QkJBKRSkCiQpBKa0IraqAoioVoSU0NHFCksZp7G7s2M6u93/v3xwe7u7acWLHbd0HhL8X62q9547nHs89c86Z7yP0CaCjvQhQa8jzRdJDYmGRkpbyqZ16qeIPpdliDXYOq4bG6zaVan5fTLQdujjrO66knqMTSQLJGXAMpIiWL6QSyUc5PQ/FWf++3Val6sXDLJNUw5rCkBkahg3mSb5Y9xhj+Qw/fdGfr6NE1tURJkm4rCiBEhBQEpBEcoGfvOhLQEPjXLKQysOmpipohdAMsWwixBEzUcWXricVh6RQWDou5kr+2aJftynIrkmiG8Slyz7ROCCCrmvB5VWrka5ryWRUw7KOnssECk5s9VQngUS26GDDhZjeoU6TiBNT9NzL9Uf3m/+caAKxB/eJeluWavL4Gff+PXq71cqlld/8pfr1x7PPvlSOx9tPf8VSut0aEljN400SDVTfLeXerxvzjfa4Th3WQwQp4dy0PDLRyqb4O6fdz95thVSeS7PfH6rfv1u7oPmmys7PQKPuEvrFEh7YJ27Jq8G3JZJDvGYLP4gTGWuj3vI1k7d6/+iTRXrhb/W77whNnK4X59zvPpWYmER7GH72kv3pXf7wALd9Obvg+r4zNetrgj2x38gkOvMjkaqu2lLCgAoQOag0SPWQCwiOm5GU9Prb3psnnKe/Fn7mlSu5fnbgHnWuLN+f9Scvubdv5wlLdX2YmGxtG9RePFzdf0fkS/d2F1PCtoSqJ3zkgIiM1Ty16QsJjIHv+OqvX609+WDiVwcrQ/3q6JB59ETjrl08k+JNR5w7386m8NDb3l23skLG8yWUanK+5DMmpy97B/ZptwxrhFS2seWtp5wPAGChw4ByuXRwedVqZFlmYXjA8JtKuwI8IF7BNUo7PvFT5fBkXXe7EnkEUKq0Xcerlh0GFApxTeWRMNquXCg51Zqcu+J6Hqoqt13SVa7wgJA+4C+Dkqv8p2JdcbUrjvnS2e3/KuUPXYq3qLvdIWAMEhEcz+upCBccFQHRCLM0fyjDtheUckVW676lM8eRnImwwRExEGYJmNTO1iJTbctHBsQBsOyGjy1EJcgefyAhcYacJCAZBlc4S8UZIw7SIaTFquPYpAredlxFSE0s7XEIwCN+dCHRkCFABow3mX6mESu2NYldJjOEaJgZOhH4Kvc1Lk2DYhYaGhoaeJ4sVVyOQJJs1wuHGCMglAGNkkT4oKmdqFguUwEROJtuhs9U4zZxQo4gQ5pieyS41FXGGKoKqCpZJkbDwpHguo4VBoVTqeJVq6Qq5LQ9hhjSOANEAJfYW7Ph+Za2zlBJLxcNhe3YuTW45D/44Td6nwnBG832u8dOLnjCjmb8IF20um8SQM1VTcXdFqlHFTcgdk1YvC/Bbx1Vh9NiIIn9MUY+5VJsdEC9qcD2jOsxC0wNhjMsFWO3j4X6Yh1xuJonDs2kfzs5Mt2yCJlLXBK/3NbGI7XhcIN1mqlAUTAVxYEkz6f1QpqB9C0DUjGeicuxvFpIIwOZSfEtAzwdw7FBofCAkZ6mW+YzZ0bfWOhvy06/uuNz2/d3xCtxLeDuIE1hmYQYHRBDWW08rwwkeb0u831sIMFuG9N2jaj9CaZyuWVQzfUpY0NKNsk4YwEl2bFS8scT26dbEQIGCBJY3eNJ1d5qNQ3uIyECxCxlNMdH+mUyqty21TR15IwGUmw0K/aMaeM5HlIhHubjBT0Wgjt36KYe0BDgnKO/eDH/x+lC1deBMWDMJtF0aEe81qe1GIKqYCEjRjLaeF4MpDDXxwoZRQCoXCYi7KYRLRaC3du0XSOikOaCQzYpRrLKYIqPDgoQ/Hgl+otz205Wkh4xuFGqWWcy8t7R27cknnjyIUURAIAOHV/+G/PzpWef+cMLh89e3rqvYqRu6JUMZE6vPzRQfDA7MxZvGpyApETW6RLAIElwVTAIEPS2UFc2hHzAy03+xlzqT9NDx0tJOxDLQQAADt7e+JXHChfuSV1JG5Jhd8PepeHv8gUHFwxQEnVkjTsU5QQtj52phg5eyvx5On/ZNXtys0iQUJufyV76/GDx5ljNUgLiW6KOnc6IsdcU2GVW7wbREDTvlR38+0Lyxan8m3NpB0T3GZAC3k3W4iP52QfSM3mzrbBAc1IC9kLbXoNSj3QeurX0zq0ciZN17a8zmVem8+81Ij4EGxJEAAPa+7Mzjwx9cGdy0VJYcNS1dyKp20sFvcRMTxKhG80hEVUc+Hcp9vIH+cNz6Yq3Mu1+XWQXJ6OnDv/o6a8+/Ln7OOfXcSMp5VtHT/zkp797pxGaG9rbFObaFgN674iwh8xWOmSrTHa2DQB49V5imRthNy3Vyd1JwqqtXGgYl23D75HoYMcSgkzr9RHTiWod4cMlHeQVD5qCrp+l1FbwMnN8NttW3m+YDU+VyzPywWlA5uZDjcGQbYiApmPFsHt/y7XtAkE8CA2PX6jpxbYFBBKXUgwIxEgmVHvYbCZ0R7Be399VosRX/VjKu3dOXnsAcy31Yi1U9jQIWvKXJlIq4OfNZsFsG4p3zRKyIue8/KF0O6QImp4oNvRiy2z7fD3limR7Pnrq8MN7C9/7/lP9/YnO4Fe4EQC0mu1XXz3y7PMHJzFZLuytCVPe6HWJvS0udXbRNxzNCgO0JO99HbCAzBpXLGnrsgzdaZMI112rEbrdYR++M7wzGmLUVVC49hbY5cjGld6/jsEHhE49MohrHaVL1oPwEajffAoKX8DWFrYOIBjE67Phc0fvKpjf+faXd+4a5d10z3XcCAAajdbrr7358+demapRa2R3ObmlKddRD/nQ9atrDKzy/Y/6fNdlfEPsr1Hj3JjBr2a/0+j00W7TlSO60WPjCGG/EZs5LaYm7r45/61vPn7LrWNCLG3zr+9GAGDbzulTk8//8uXDR961uaYXtpXBaDhrVvI+/nyt3vyyAVhjsj5R+xtifHU3+kTMdsERLAVCrZI9M5Uylce+cP+jX9yfy6eDkGjJxmpuFLw5XdebOHn+tdeOvP2Pk5MXLjWa7Y896k38L4EzjMcj42OFe+/b88D+O/NDac45XhN7rOVGm9jEOrGxyteb+D/FphttYgOw6Uab2ABsutEmNgCbbrSJDcB/AcpzXRWigy0lAAAAAElFTkSuQmCC;labelBorderColor=default;imageBorder=default;strokeWidth=3;" vertex="1" parent="7">
                    <mxGeometry x="520" y="90" width="194" height="144" as="geometry"/>
                </mxCell>
                <mxCell id="9" value="&lt;font style=&quot;font-size: 20px;&quot;&gt;Division Numbers, in JS&lt;/font&gt;" style="text;html=1;align=center;verticalAlign=middle;resizable=0;points=[];autosize=1;strokeColor=none;fillColor=none;" vertex="1" parent="7">
                    <mxGeometry x="265" y="60" width="230" height="40" as="geometry"/>
                </mxCell>
                <mxCell id="10" value="&lt;font style=&quot;font-size: 20px;&quot;&gt;Please enter the two numbers.&lt;/font&gt;" style="text;html=1;align=center;verticalAlign=middle;resizable=0;points=[];autosize=1;strokeColor=none;fillColor=none;" vertex="1" parent="7">
                    <mxGeometry x="10" y="110" width="300" height="40" as="geometry"/>
                </mxCell>
                <mxCell id="11" value="&lt;font style=&quot;font-size: 20px;&quot;&gt;Numbers&lt;/font&gt;:" style="text;html=1;align=center;verticalAlign=middle;resizable=0;points=[];autosize=1;strokeColor=none;fillColor=none;" vertex="1" parent="7">
                    <mxGeometry x="10" y="160" width="110" height="40" as="geometry"/>
                </mxCell>
                <mxCell id="12" value="First number here..." style="rounded=1;whiteSpace=wrap;html=1;align=left;" vertex="1" parent="7">
                    <mxGeometry x="120" y="150" width="200" height="60" as="geometry"/>
                </mxCell>
                <mxCell id="13" value="&lt;span id=&quot;docs-internal-guid-8c8a95d0-7fff-c745-eeb4-c916e1356f4c&quot;&gt;&lt;span style=&quot;font-family: Consolas, sans-serif; background-color: transparent; font-variant-numeric: normal; font-variant-east-asian: normal; font-variant-alternates: normal; font-variant-position: normal; font-variant-emoji: normal; vertical-align: baseline; white-space: pre-wrap;&quot;&gt;&lt;font style=&quot;color: rgb(0, 0, 0); font-size: 25px;&quot;&gt;÷&lt;/font&gt;&lt;/span&gt;&lt;/span&gt;" style="text;html=1;align=center;verticalAlign=middle;resizable=0;points=[];autosize=1;strokeColor=none;fillColor=none;" vertex="1" parent="7">
                    <mxGeometry x="335" y="155" width="40" height="40" as="geometry"/>
                </mxCell>
                <mxCell id="14" value="Second number here..." style="rounded=1;whiteSpace=wrap;html=1;align=left;" vertex="1" parent="7">
                    <mxGeometry x="20" y="220" width="200" height="60" as="geometry"/>
                </mxCell>
                <mxCell id="15" value="CALCULATE" style="rounded=1;whiteSpace=wrap;html=1;" vertex="1" parent="7">
                    <mxGeometry x="20" y="300" width="120" height="60" as="geometry"/>
                </mxCell>
            </root>
        </mxGraphModel>
    </diagram>
</mxfile>